<svg id="visual" viewBox="0 0 960 540" width="960" height="540" xmlns="http://www.w3.org/2000/svg" xmlns:xlink="http://www.w3.org/1999/xlink" version="1.1"><rect x="0" y="0" width="960" height="540" fill="#CCCCCC"></rect><path d="M0 298L20 296.5C40 295 80 292 120 291.5C160 291 200 293 240 296C280 299 320 303 360 303C400 303 440 299 480 300.8C520 302.7 560 310.3 600 309C640 307.7 680 297.3 720 290.7C760 284 800 281 840 285.8C880 290.7 920 303.3 940 309.7L960 316L960 541L940 541C920 541 880 541 840 541C800 541 760 541 720 541C680 541 640 541 600 541C560 541 520 541 480 541C440 541 400 541 360 541C320 541 280 541 240 541C200 541 160 541 120 541C80 541 40 541 20 541L0 541Z" fill="#ffffff"></path><path d="M0 342L20 342C40 342 80 342 120 336.3C160 330.7 200 319.3 240 313.7C280 308 320 308 360 313.7C400 319.3 440 330.7 480 337.5C520 344.3 560 346.7 600 348.3C640 350 680 351 720 348.8C760 346.7 800 341.3 840 338.2C880 335 920 334 940 333.5L960 333L960 541L940 541C920 541 880 541 840 541C800 541 760 541 720 541C680 541 640 541 600 541C560 541 520 541 480 541C440 541 400 541 360 541C320 541 280 541 240 541C200 541 160 541 120 541C80 541 40 541 20 541L0 541Z" fill="#d0d2d6"></path><path d="M0 336L20 340.3C40 344.7 80 353.3 120 357.5C160 361.7 200 361.3 240 362.8C280 364.3 320 367.7 360 367.5C400 367.3 440 363.7 480 365C520 366.3 560 372.7 600 375C640 377.3 680 375.7 720 372.7C760 369.7 800 365.3 840 359.5C880 353.7 920 346.3 940 342.7L960 339L960 541L940 541C920 541 880 541 840 541C800 541 760 541 720 541C680 541 640 541 600 541C560 541 520 541 480 541C440 541 400 541 360 541C320 541 280 541 240 541C200 541 160 541 120 541C80 541 40 541 20 541L0 541Z" fill="#a2a6ae"></path><path d="M0 377L20 379.5C40 382 80 387 120 387.7C160 388.3 200 384.7 240 383C280 381.3 320 381.7 360 383.3C400 385 440 388 480 387.5C520 387 560 383 600 380.3C640 377.7 680 376.3 720 382.7C760 389 800 403 840 404.8C880 406.7 920 396.3 940 391.2L960 386L960 541L940 541C920 541 880 541 840 541C800 541 760 541 720 541C680 541 640 541 600 541C560 541 520 541 480 541C440 541 400 541 360 541C320 541 280 541 240 541C200 541 160 541 120 541C80 541 40 541 20 541L0 541Z" fill="#777d88"></path><path d="M0 429L20 427.3C40 425.7 80 422.3 120 423C160 423.7 200 428.3 240 427.3C280 426.3 320 419.7 360 416.3C400 413 440 413 480 417C520 421 560 429 600 429.7C640 430.3 680 423.7 720 420.3C760 417 800 417 840 422.5C880 428 920 439 940 444.5L960 450L960 541L940 541C920 541 880 541 840 541C800 541 760 541 720 541C680 541 640 541 600 541C560 541 520 541 480 541C440 541 400 541 360 541C320 541 280 541 240 541C200 541 160 541 120 541C80 541 40 541 20 541L0 541Z" fill="#4e5664"></path><path d="M0 463L20 465C40 467 80 471 120 468.2C160 465.3 200 455.7 240 455.3C280 455 320 464 360 465.7C400 467.3 440 461.7 480 460.3C520 459 560 462 600 461C640 460 680 455 720 455.2C760 455.3 800 460.7 840 466C880 471.3 920 476.7 940 479.3L960 482L960 541L940 541C920 541 880 541 840 541C800 541 760 541 720 541C680 541 640 541 600 541C560 541 520 541 480 541C440 541 400 541 360 541C320 541 280 541 240 541C200 541 160 541 120 541C80 541 40 541 20 541L0 541Z" fill="#273242"></path><path d="M0 509L20 505.3C40 501.7 80 494.3 120 492.2C160 490 200 493 240 494.8C280 496.7 320 497.3 360 496.8C400 496.3 440 494.7 480 496.8C520 499 560 505 600 504C640 503 680 495 720 493.8C760 492.7 800 498.3 840 498C880 497.7 920 491.3 940 488.2L960 485L960 541L940 541C920 541 880 541 840 541C800 541 760 541 720 541C680 541 640 541 600 541C560 541 520 541 480 541C440 541 400 541 360 541C320 541 280 541 240 541C200 541 160 541 120 541C80 541 40 541 20 541L0 541Z" fill="#001122"></path></svg>